<svg xmlns="http://www.w3.org/2000/svg" fill="none" viewBox="0 0 16 16" width="16" height="16">
<path class="filled-circle" clip-rule="evenodd" fill="none" fill-rule="evenodd" d="M 8 16 C 12.4183 16 16 12.4183 16 8 C 16 3.58172 12.4183 0 8 0 C 3.58172 0 0 3.58172 0 8 C 0 12.4183 3.58172 16 8 16 Z" />
<path class="circle" stroke="#9D5CD0" d="M 15.5 8 C 15.5 12.1421 12.1421 15.5 8 15.5 C 3.85786 15.5 0.5 12.1421 0.5 8 C 0.5 3.85786 3.85786 0.5 8 0.5 C 12.1421 0.5 15.5 3.85786 15.5 8 Z" />
<path class="letter" fill="#9D5CD0" d="M 7.26154 6.4551 H 8.73846 V 13 H 7.26154 V 6.4551 Z M 8 4.90259 C 7.71282 4.90259 7.4718 4.81126 7.27692 4.62861 C 7.09231 4.44597 7 4.22273 7 3.9589 C 7 3.69508 7.09231 3.47184 7.27692 3.28919 C 7.4718 3.0964 7.71282 3 8 3 C 8.28718 3 8.52308 3.09132 8.70769 3.27397 C 8.90256 3.44647 9 3.66464 9 3.92846 C 9 4.20243 8.90256 4.43582 8.70769 4.62861 C 8.52308 4.81126 8.28718 4.90259 8 4.90259 Z" /></svg>